<svg width="24" height="24" viewBox="0 0 24 24" fill="none" xmlns="http://www.w3.org/2000/svg">
<path d="M9.53055 3.96937L17.0306 11.4694C17.1003 11.539 17.1556 11.6217 17.1933 11.7128C17.2311 11.8038 17.2505 11.9014 17.2505 12C17.2505 12.0986 17.2311 12.1962 17.1933 12.2872C17.1556 12.3782 17.1003 12.461 17.0306 12.5306L9.53055 20.0306C9.38982 20.1714 9.19895 20.2504 8.99993 20.2504C8.80091 20.2504 8.61003 20.1714 8.4693 20.0306C8.32857 19.8899 8.24951 19.699 8.24951 19.5C8.24951 19.301 8.32857 19.1101 8.4693 18.9694L15.4396 12L8.4693 5.03062C8.39962 4.96094 8.34435 4.87821 8.30663 4.78717C8.26892 4.69612 8.24951 4.59854 8.24951 4.49999C8.24951 4.40145 8.26892 4.30387 8.30663 4.21282C8.34435 4.12178 8.39962 4.03905 8.4693 3.96937C8.53899 3.89969 8.62171 3.84441 8.71276 3.8067C8.8038 3.76899 8.90138 3.74958 8.99993 3.74958C9.09847 3.74958 9.19606 3.76899 9.2871 3.8067C9.37815 3.84441 9.46087 3.89969 9.53055 3.96937Z" fill="white"/>
</svg>
