<svg width="20" height="20" viewBox="0 0 20 20" fill="none" xmlns="http://www.w3.org/2000/svg">
<path d="M19.5 9.75C19.5 7.82164 18.9282 5.93657 17.8568 4.33319C16.7855 2.72982 15.2627 1.48013 13.4812 0.742179C11.6996 0.00422452 9.73919 -0.188858 7.84787 0.187348C5.95656 0.563554 4.21928 1.49215 2.85571 2.85571C1.49215 4.21928 0.563554 5.95656 0.187348 7.84787C-0.188858 9.73919 0.00422452 11.6996 0.742179 13.4812C1.48013 15.2627 2.72982 16.7855 4.33319 17.8568C5.93657 18.9282 7.82164 19.5 9.75 19.5C12.3349 19.4968 14.813 18.4685 16.6407 16.6407C18.4685 14.813 19.4968 12.3349 19.5 9.75ZM8.625 5.625C8.625 5.4025 8.69098 5.18499 8.8146 4.99999C8.93822 4.81498 9.11392 4.67079 9.31949 4.58564C9.52505 4.50049 9.75125 4.47821 9.96948 4.52162C10.1877 4.56503 10.3882 4.67217 10.5455 4.82951C10.7028 4.98684 10.81 5.1873 10.8534 5.40553C10.8968 5.62376 10.8745 5.84996 10.7894 6.05552C10.7042 6.26109 10.56 6.43679 10.375 6.56041C10.19 6.68402 9.97251 6.75 9.75 6.75C9.45164 6.75 9.16549 6.63148 8.95451 6.4205C8.74353 6.20952 8.625 5.92337 8.625 5.625ZM8.625 9.75C8.625 9.5275 8.69098 9.30999 8.8146 9.12499C8.93822 8.93998 9.11392 8.79579 9.31949 8.71064C9.52505 8.62549 9.75125 8.60321 9.96948 8.64662C10.1877 8.69003 10.3882 8.79718 10.5455 8.95451C10.7028 9.11184 10.81 9.3123 10.8534 9.53053C10.8968 9.74876 10.8745 9.97496 10.7894 10.1805C10.7042 10.3861 10.56 10.5618 10.375 10.6854C10.19 10.809 9.97251 10.875 9.75 10.875C9.45164 10.875 9.16549 10.7565 8.95451 10.5455C8.74353 10.3345 8.625 10.0484 8.625 9.75ZM8.625 13.875C8.625 13.6525 8.69098 13.435 8.8146 13.25C8.93822 13.065 9.11392 12.9208 9.31949 12.8356C9.52505 12.7505 9.75125 12.7282 9.96948 12.7716C10.1877 12.815 10.3882 12.9222 10.5455 13.0795C10.7028 13.2368 10.81 13.4373 10.8534 13.6555C10.8968 13.8738 10.8745 14.1 10.7894 14.3055C10.7042 14.5111 10.56 14.6868 10.375 14.8104C10.19 14.934 9.97251 15 9.75 15C9.45164 15 9.16549 14.8815 8.95451 14.6705C8.74353 14.4595 8.625 14.1734 8.625 13.875Z" fill="white"/>
</svg>
