<svg width="20" height="19" viewBox="0 0 20 19" fill="none" xmlns="http://www.w3.org/2000/svg">
<path d="M19.4964 6.75C19.4964 6.94891 19.4174 7.13968 19.2767 7.28033C19.1361 7.42098 18.9453 7.5 18.7464 7.5H17.2464V9C17.2464 9.19891 17.1674 9.38968 17.0267 9.53033C16.8861 9.67098 16.6953 9.75 16.4964 9.75C16.2975 9.75 16.1067 9.67098 15.966 9.53033C15.8254 9.38968 15.7464 9.19891 15.7464 9V7.5H14.2464C14.0475 7.5 13.8567 7.42098 13.716 7.28033C13.5754 7.13968 13.4964 6.94891 13.4964 6.75C13.4964 6.55109 13.5754 6.36032 13.716 6.21967C13.8567 6.07902 14.0475 6 14.2464 6H15.7464V4.5C15.7464 4.30109 15.8254 4.11032 15.966 3.96967C16.1067 3.82902 16.2975 3.75 16.4964 3.75C16.6953 3.75 16.8861 3.82902 17.0267 3.96967C17.1674 4.11032 17.2464 4.30109 17.2464 4.5V6H18.7464C18.9453 6 19.1361 6.07902 19.2767 6.21967C19.4174 6.36032 19.4964 6.55109 19.4964 6.75ZM10.4964 3H11.2464V3.75C11.2464 3.94891 11.3254 4.13968 11.466 4.28033C11.6067 4.42098 11.7975 4.5 11.9964 4.5C12.1953 4.5 12.3861 4.42098 12.5267 4.28033C12.6674 4.13968 12.7464 3.94891 12.7464 3.75V3H13.4964C13.6953 3 13.8861 2.92098 14.0267 2.78033C14.1674 2.63968 14.2464 2.44891 14.2464 2.25C14.2464 2.05109 14.1674 1.86032 14.0267 1.71967C13.8861 1.57902 13.6953 1.5 13.4964 1.5H12.7464V0.75C12.7464 0.551088 12.6674 0.360322 12.5267 0.21967C12.3861 0.0790176 12.1953 0 11.9964 0C11.7975 0 11.6067 0.0790176 11.466 0.21967C11.3254 0.360322 11.2464 0.551088 11.2464 0.75V1.5H10.4964C10.2975 1.5 10.1067 1.57902 9.96605 1.71967C9.82539 1.86032 9.74638 2.05109 9.74638 2.25C9.74638 2.44891 9.82539 2.63968 9.96605 2.78033C10.1067 2.92098 10.2975 3 10.4964 3ZM16.6033 11.8434C15.273 12.1063 13.8984 12.0374 12.6011 11.6429C11.3037 11.2485 10.1235 10.5406 9.16465 9.58172C8.20582 8.62289 7.4979 7.44266 7.10344 6.1453C6.70897 4.84795 6.64011 3.47341 6.90294 2.14313C6.92869 2.01258 6.91924 1.87753 6.87556 1.75184C6.83189 1.62614 6.75556 1.51434 6.65441 1.42788C6.55326 1.34142 6.43093 1.28344 6.29997 1.25987C6.16901 1.2363 6.03414 1.24799 5.90919 1.29375C4.489 1.81306 3.22256 2.68183 2.2268 3.81985C1.23104 4.95786 0.538071 6.32843 0.211884 7.80498C-0.114304 9.28154 -0.0631941 10.8165 0.360493 12.2681C0.78418 13.7196 1.56678 15.0411 2.63604 16.1103C3.70529 17.1796 5.02673 17.9622 6.47831 18.3859C7.9299 18.8096 9.46484 18.8607 10.9414 18.5345C12.4179 18.2083 13.7885 17.5153 14.9265 16.5196C16.0645 15.5238 16.9333 14.2574 17.4526 12.8372C17.4984 12.7122 17.5101 12.5774 17.4865 12.4464C17.4629 12.3154 17.405 12.1931 17.3185 12.092C17.232 11.9908 17.1202 11.9145 16.9945 11.8708C16.8688 11.8271 16.7338 11.8177 16.6033 11.8434Z" fill="black"/>
</svg>
