<svg width="45" height="45" viewBox="0 0 45 45" fill="none" xmlns="http://www.w3.org/2000/svg">
<path fill-rule="evenodd" clip-rule="evenodd" d="M22.5 45C34.9265 45 45 34.9265 45 22.5C45 10.0736 34.9265 0 22.5 0C10.0736 0 0 10.0736 0 22.5C0 34.9265 10.0736 45 22.5 45ZM25 8.75C25 7.3693 23.8808 6.25 22.5 6.25C21.1192 6.25 20 7.3693 20 8.75V21.875C20 23.601 21.399 25 23.125 25H31.25C32.6307 25 33.75 23.8808 33.75 22.5C33.75 21.1192 32.6307 20 31.25 20H25V8.75Z" fill="white" fill-opacity="0.2"/>
</svg>
